<?xml version="1.0" encoding="UTF-8" standalone="no"?>
<svg width="190px" height="28px" viewBox="0 0 190 28" version="1.1" xmlns="http://www.w3.org/2000/svg" xmlns:xlink="http://www.w3.org/1999/xlink">
    <!-- Generator: Sketch 39.1 (31720) - http://www.bohemiancoding.com/sketch -->
    <title>Group</title>
    <desc>Created with Sketch.</desc>
    <defs></defs>
    <g id="Symbols" stroke="none" stroke-width="1" fill="none" fill-rule="evenodd">
        <g id="Header" transform="translate(-79.000000, -32.000000)" fill="#FFFFFF">
            <g id="Group" transform="translate(79.000000, 32.000000)">
                <path d="M156.524384,7.82590116 C156.524384,6.19308244 156.90851,5.1299189 158.011664,5.1299189 C159.100342,5.1299189 159.549131,6.28754303 159.549131,7.87313145 C159.549131,9.4105257 159.149564,10.6635743 157.98078,10.6635743 C156.826473,10.6626104 156.524384,9.71125737 156.524384,7.82590116 L156.524384,7.82590116 Z M159.549131,0.0897718653 L159.549131,4.98726413 L159.517282,4.98726413 C159.22774,4.35302876 158.57241,3.68698524 157.388184,3.68698524 C155.612328,3.68698524 154.539093,5.23980162 154.539093,7.90301184 C154.539093,10.1710298 155.38938,12.1045802 157.436441,12.1045802 C158.717181,12.1045802 159.310742,11.4067285 159.628273,10.7098407 L159.677495,10.7098407 C159.677495,11.2640737 159.709345,11.7392683 159.742159,11.9773476 L161.597157,11.9773476 C161.549866,11.675652 161.534423,11.1686493 161.534423,10.5816442 L161.534423,0.0897718653 L159.549131,0.0897718653 L159.549131,0.0897718653 Z M151.066521,8.44278663 C151.066521,9.90114242 150.633173,10.7724931 149.447982,10.7724931 C148.680696,10.7724931 148.183649,10.2664543 148.183649,9.52040843 C148.183649,8.3329039 149.19222,7.98301418 150.888935,7.98301418 L151.066521,7.98301418 L151.066521,8.44278663 L151.066521,8.44278663 Z M147.273523,5.87596476 C147.655718,5.55788319 148.538821,5.08365249 149.529054,5.08365249 C150.667918,5.08365249 151.067486,5.82777058 151.067486,6.63550499 L151.067486,6.93623665 L150.667918,6.93623665 C148.154695,6.93623665 146.328651,7.49143357 146.328651,9.71029348 C146.328651,11.2322656 147.513843,12.1045802 148.793618,12.1045802 C149.978809,12.1045802 150.602289,11.5320334 151.099336,10.8679176 L151.131185,10.8679176 C151.131185,11.2640737 151.147593,11.659266 151.242176,11.9773476 L153.036371,11.9773476 C152.987148,11.659266 152.922484,11.1204551 152.922484,10.5344139 L152.922484,6.96804481 C152.922484,4.92268394 152.330854,3.68698524 149.769374,3.68698524 C148.506006,3.68698524 147.721348,4.03591108 147.161567,4.28941245 L147.273523,5.87596476 L147.273523,5.87596476 Z M139.924951,7.82590116 C139.924951,6.19308244 140.310042,5.1299189 141.415126,5.1299189 C142.502839,5.1299189 142.950663,6.28754303 142.950663,7.87313145 C142.950663,9.4105257 142.552061,10.6635743 141.382312,10.6635743 C140.229935,10.6626104 139.924951,9.71125737 139.924951,7.82590116 L139.924951,7.82590116 Z M142.950663,0.0897718653 L142.950663,4.98726413 L142.918814,4.98726413 C142.631202,4.35302876 141.974907,3.68698524 140.791646,3.68698524 C139.01386,3.68698524 137.942555,5.23980162 137.942555,7.90301184 C137.942555,10.1710298 138.790912,12.1045802 140.838938,12.1045802 C142.119678,12.1045802 142.710344,11.4067285 143.03077,10.7098407 L143.079027,10.7098407 C143.079027,11.2640737 143.111842,11.7392683 143.142726,11.9773476 L145.00062,11.9773476 C144.952363,11.675652 144.937885,11.1686493 144.937885,10.5816442 L144.937885,0.0897718653 L142.950663,0.0897718653 L142.950663,0.0897718653 Z M134.165964,2.2777875 L136.213025,2.2777875 L136.213025,0.343273236 L134.165964,0.343273236 L134.165964,2.2777875 L134.165964,2.2777875 Z M134.195883,11.9783115 L136.181175,11.9783115 L136.181175,3.81518175 L134.195883,3.81518175 L134.195883,11.9783115 L134.195883,11.9783115 Z M127.170633,11.7084241 C127.586609,11.8674648 128.435931,12.1055441 129.459944,12.1055441 C131.251243,12.1055441 132.531983,11.2004574 132.531983,9.69583523 C132.531983,8.74351829 132.020459,8.28470973 130.995481,7.63505222 L130.01876,7.01623899 C129.443537,6.65092713 129.090296,6.41284789 129.090296,5.96946146 C129.090296,5.47884474 129.427129,5.17811308 130.22723,5.17811308 C130.949154,5.17811308 131.476121,5.352576 131.972202,5.54149717 L132.085124,4.02048894 C131.892096,3.95783651 131.075588,3.68698524 130.01876,3.68698524 C128.274753,3.68698524 127.170633,4.87545364 127.170633,6.00126962 C127.170633,7.28612638 128.081725,7.80758737 128.915606,8.29916798 L129.731148,8.77532645 C130.451142,9.1878686 130.613286,9.48860027 130.613286,9.80379019 C130.613286,10.4399533 130.051575,10.6144162 129.331581,10.6144162 C128.404082,10.6144162 127.586609,10.2018741 127.267147,10.0746415 L127.170633,11.7084241 L127.170633,11.7084241 Z M122.076627,11.9783115 L124.061919,11.9783115 L124.061919,7.50781959 C124.061919,5.9848836 124.959499,5.49523076 125.773112,5.49523076 C125.981582,5.49523076 126.157237,5.52511115 126.333858,5.57330533 L126.333858,3.73517942 C126.221901,3.7187934 126.125387,3.68698524 125.997024,3.68698524 C124.763576,3.68698524 124.141061,4.67111033 123.899776,5.30438182 L123.868891,5.30438182 C123.868891,4.81280121 123.820634,4.30579847 123.805192,3.81518175 L122.012928,3.81518175 C122.061185,4.17760196 122.076627,4.65472431 122.076627,5.16172706 L122.076627,11.9783115 L122.076627,11.9783115 Z M115.706707,7.19166579 C115.706707,6.11308011 116.138125,5.02003617 117.180475,5.02003617 C118.076125,5.02003617 118.555799,5.74969601 118.555799,7.19166579 L115.706707,7.19166579 L115.706707,7.19166579 Z M119.964902,10.0293389 C119.596219,10.2972986 119.020031,10.6626104 117.803955,10.6626104 C116.267453,10.6626104 115.706707,9.82210397 115.706707,8.42832837 L120.476426,8.42832837 L120.476426,8.04663049 C120.476426,4.71834063 118.956332,3.68794912 117.180475,3.68794912 C115.083227,3.68794912 113.78608,5.57426921 113.78608,8.01482234 C113.78608,10.2182601 114.937491,12.1055441 117.595485,12.1055441 C118.778746,12.1055441 119.643511,11.7556544 120.059486,11.5821553 L119.964902,10.0293389 L119.964902,10.0293389 Z M108.088862,11.9783115 L110.425464,11.9783115 L112.955095,3.81518175 L111.033502,3.81518175 L109.337752,10.1064496 L109.303007,10.1064496 L107.624629,3.81518175 L105.576604,3.81518175 L108.088862,11.9783115 L108.088862,11.9783115 Z M102.310572,2.2777875 L104.359563,2.2777875 L104.359563,0.343273236 L102.310572,0.343273236 L102.310572,2.2777875 L102.310572,2.2777875 Z M102.343386,11.9783115 L104.327713,11.9783115 L104.327713,3.81518175 L102.343386,3.81518175 L102.343386,11.9783115 L102.343386,11.9783115 Z M93.8434034,11.9783115 L95.8267649,11.9783115 L95.8267649,7.22154618 C95.8267649,6.17476866 96.1973785,5.30438182 97.2358685,5.30438182 C98.0533416,5.30438182 98.3737679,5.82777058 98.3737679,7.0798553 L98.3737679,11.9783115 L100.35906,11.9783115 L100.35906,6.71550732 C100.35906,5.06823035 99.7983137,3.68698524 97.9259432,3.68698524 C96.5805388,3.68698524 96.0217231,4.57472198 95.7341116,5.06823035 L95.7505189,5.06823035 L95.7032271,5.06823035 C95.7032271,4.65472431 95.654005,4.2277239 95.6375976,3.81518175 L93.7816345,3.81518175 C93.8298914,4.17760196 93.8453337,4.65472431 93.8453337,5.16172706 L93.8453337,11.9783115 L93.8434034,11.9783115 Z M84.2557082,0.913892292 L84.2557082,8.07843865 C84.2557082,10.9951502 85.9533884,12.1373522 88.0660787,12.1373522 C90.1623616,12.1373522 91.8590767,10.9951502 91.8590767,8.07843865 L91.8590767,0.913892292 L89.8110508,0.913892292 L89.8110508,8.07843865 C89.8110508,9.91849233 89.2358277,10.5199557 88.0660787,10.5199557 C86.8654452,10.5199557 86.3066295,9.91849233 86.3066295,8.07843865 L86.3066295,0.913892292 L84.2557082,0.913892292 L84.2557082,0.913892292 Z" id="Shape"></path>
                <path d="M181.671093,23.081286 C181.671093,26.9724838 183.890913,27.8737149 185.800924,27.8737149 C187.710935,27.8737149 189.912418,26.9724838 189.912418,23.081286 C189.912418,19.2970792 187.7119,18.3062069 185.800924,18.3062069 C183.889948,18.3062069 181.671093,19.2970792 181.671093,23.081286 L181.671093,23.081286 Z M183.999974,23.081286 C183.999974,21.5323251 184.346459,19.8917953 185.801889,19.8917953 C187.25732,19.8917953 187.584502,21.5313612 187.584502,23.081286 C187.584502,24.6312107 187.25732,26.2881265 185.801889,26.2881265 C184.346459,26.2881265 183.999974,24.6302468 183.999974,23.081286 L183.999974,23.081286 Z M177.414828,27.7291324 L179.671324,27.7291324 L179.671324,14.2154852 L177.414828,14.2154852 L177.414828,27.7291324 L177.414828,27.7291324 Z M172.684679,27.7291324 L174.941175,27.7291324 L174.941175,14.2154852 L172.684679,14.2154852 L172.684679,27.7291324 L172.684679,27.7291324 Z M162.441654,23.081286 C162.441654,26.9724838 164.661475,27.8737149 166.573416,27.8737149 C168.483427,27.8737149 170.683945,26.9724838 170.683945,23.081286 C170.683945,19.2970792 168.483427,18.3062069 166.573416,18.3062069 C164.66051,18.3062069 162.441654,19.2970792 162.441654,23.081286 L162.441654,23.081286 Z M164.770536,23.081286 C164.770536,21.5323251 165.116056,19.8917953 166.573416,19.8917953 C168.026916,19.8917953 168.355064,21.5313612 168.355064,23.081286 C168.355064,24.6312107 168.026916,26.2881265 166.573416,26.2881265 C165.116056,26.2881265 164.770536,24.6302468 164.770536,23.081286 L164.770536,23.081286 Z M156.543687,27.7291324 L158.799218,27.7291324 L158.799218,22.6485022 C158.799218,20.9192952 159.818405,20.3612066 160.74687,20.3612066 C160.982364,20.3612066 161.182147,20.3959064 161.381931,20.4518117 L161.381931,18.3611483 C161.256463,18.3418706 161.146437,18.3062069 160.999736,18.3062069 C159.599319,18.3062069 158.889941,19.4243118 158.617772,20.1443328 L158.580131,20.1443328 C158.580131,19.5862442 158.525119,19.008878 158.506781,18.4517533 L156.470337,18.4517533 C156.52535,18.8642955 156.543687,19.4050341 156.543687,19.9824004 L156.543687,27.7291324 L156.543687,27.7291324 Z M150.139022,27.7291324 L152.394553,27.7291324 L152.394553,22.6485022 C152.394553,20.9192952 153.41374,20.3612066 154.343169,20.3612066 C154.577698,20.3612066 154.778447,20.3959064 154.979196,20.4518117 L154.979196,18.3611483 C154.851798,18.3418706 154.743702,18.3062069 154.597001,18.3062069 C153.196584,18.3062069 152.487206,19.4243118 152.214072,20.1443328 L152.176431,20.1443328 C152.176431,19.5862442 152.121418,19.008878 152.103081,18.4517533 L150.065671,18.4517533 C150.121649,18.8642955 150.139022,19.4050341 150.139022,19.9824004 L150.139022,27.7291324 L150.139022,27.7291324 Z M145.864419,23.7126297 C145.864419,25.3685816 145.373163,26.3594539 144.027759,26.3594539 C143.154308,26.3594539 142.590666,25.7830515 142.590666,24.9367618 C142.590666,23.585397 143.737252,23.188277 145.666566,23.188277 L145.865384,23.188277 L145.865384,23.7126297 L145.864419,23.7126297 Z M141.553141,20.7930264 C141.989384,20.4315701 142.989269,19.8917953 144.117517,19.8917953 C145.409839,19.8917953 145.864419,20.7400128 145.864419,21.65763 L145.864419,21.9988447 L145.409839,21.9988447 C142.553026,21.9988447 140.479906,22.6292246 140.479906,25.1526717 C140.479906,26.8818788 141.825311,27.8717872 143.281706,27.8717872 C144.627111,27.8717872 145.337453,27.2240574 145.900129,26.4674088 L145.93777,26.4674088 C145.93777,26.9175424 145.956108,27.3676761 146.064203,27.7281685 L148.101613,27.7281685 C148.047565,27.3676761 147.974214,26.75561 147.974214,26.0886026 L147.974214,22.0354723 C147.974214,19.7115491 147.302477,18.305243 144.390651,18.305243 C142.952594,18.305243 142.062735,18.7013991 141.425743,18.9905642 L141.553141,20.7930264 L141.553141,20.7930264 Z M133.20372,27.4235813 C133.676638,27.6038275 134.639848,27.8737149 135.804771,27.8737149 C137.84218,27.8737149 139.296645,26.8471789 139.296645,25.1353218 C139.296645,24.0548083 138.713701,23.5323835 137.549743,22.7921209 L136.439833,22.0904137 C135.785468,21.6749799 135.384935,21.4050925 135.384935,20.9000175 C135.384935,20.3419289 135.76713,20.0007142 136.677257,20.0007142 C137.495695,20.0007142 138.096012,20.1973464 138.660619,20.4142202 L138.787052,18.6840492 C138.56893,18.611758 137.641431,18.305243 136.439833,18.305243 C134.456471,18.305243 133.202755,19.6566077 133.202755,20.9366451 C133.202755,22.394037 134.239315,22.9887531 135.185151,23.5478056 L136.111685,24.0895081 C136.932054,24.5560278 137.1135,24.8982064 137.1135,25.2596628 C137.1135,25.9796838 136.477473,26.1792077 135.65807,26.1792077 C134.602207,26.1792077 133.675673,25.7097964 133.310851,25.56425 L133.20372,27.4235813 L133.20372,27.4235813 Z M126.398522,22.2889737 C126.398522,21.0629138 126.888813,19.8195041 128.072074,19.8195041 C129.090296,19.8195041 129.636565,20.6484439 129.636565,22.2889737 L126.398522,22.2889737 L126.398522,22.2889737 Z M131.237731,25.5131641 C130.819826,25.8196791 130.163531,26.2331851 128.782416,26.2331851 C127.035514,26.2331851 126.398522,25.2779765 126.398522,23.693352 L131.81971,23.693352 L131.81971,23.2596044 C131.81971,19.4763615 130.09018,18.305243 128.072074,18.305243 C125.688179,18.305243 124.215376,20.4508478 124.215376,23.2249046 C124.215376,25.729074 125.524106,27.8717872 128.544027,27.8717872 C129.890396,27.8717872 130.872908,27.475631 131.346792,27.277071 L131.237731,25.5131641 L131.237731,25.5131641 Z M115.556145,16.9191785 L116.336943,16.9191785 C118.957297,16.9191785 120.138627,18.6840492 120.138627,21.4397923 C120.138627,24.1974631 118.956332,25.96137 116.336943,25.96137 L115.556145,25.96137 L115.556145,16.9191785 L115.556145,16.9191785 Z M113.226299,27.7291324 L116.537692,27.7291324 C120.066242,27.7291324 122.61421,25.6760604 122.61421,21.4407562 C122.61421,17.2806348 120.50345,15.1533438 116.537692,15.1533438 L113.226299,15.1533438 L113.226299,27.7291324 L113.226299,27.7291324 Z M103.766967,27.7291324 L106.023463,27.7291324 L106.023463,14.2154852 L103.766967,14.2154852 L103.766967,27.7291324 L103.766967,27.7291324 Z M96.3797898,22.2889737 C96.3797898,21.0629138 96.872011,19.8195041 98.0533416,19.8195041 C99.073494,19.8195041 99.6178327,20.6484439 99.6178327,22.2889737 L96.3797898,22.2889737 L96.3797898,22.2889737 Z M101.218999,25.5131641 C100.800128,25.8196791 100.146729,26.2331851 98.7636843,26.2331851 C97.0167819,26.2331851 96.3797898,25.2779765 96.3797898,23.693352 L101.800978,23.693352 L101.800978,23.2596044 C101.800978,19.4763615 100.073378,18.305243 98.0533416,18.305243 C95.6694472,18.305243 94.1956793,20.4508478 94.1956793,23.2249046 C94.1956793,25.729074 95.5063386,27.8717872 98.52626,27.8717872 C99.8716643,27.8717872 100.855141,27.475631 101.327095,27.277071 L101.218999,25.5131641 L101.218999,25.5131641 Z M86.6830339,23.0080308 C86.6830339,21.1535189 87.120242,19.9457728 88.3739582,19.9457728 C89.6131972,19.9457728 90.1218257,21.2595461 90.1218257,23.0620083 C90.1218257,24.8095291 89.667245,26.2331851 88.3392131,26.2331851 C87.0295189,26.234149 86.6830339,25.1536356 86.6830339,23.0080308 L86.6830339,23.0080308 Z M90.1218257,14.216449 L90.1218257,19.7838404 L90.0861155,19.7838404 C89.7579681,19.0628555 89.0119153,18.3062069 87.666511,18.3062069 C85.6474392,18.3062069 84.4284681,20.0720415 84.4284681,23.0995997 C84.4284681,25.6770243 85.3916773,27.8737149 87.7205588,27.8737149 C89.175989,27.8737149 89.8496564,27.0814026 90.2125488,26.2881265 L90.2685269,26.2881265 C90.2685269,26.9185063 90.3042371,27.4582811 90.3418775,27.7291324 L92.4526375,27.7291324 C92.3976245,27.3869537 92.3792869,26.8105514 92.3792869,26.143544 L92.3792869,14.216449 L90.1218257,14.216449 L90.1218257,14.216449 Z" id="Shape"></path>
                <path d="M0,14.7080296 C0,19.2623794 2.67440139,27.831304 13.7513068,27.831304 C18.7980209,27.831304 26.2682002,27.8303402 27.2323745,27.8303402 L27.2381653,5.75933485 L21.2938715,5.75933485 C21.2938715,10.6732131 21.2996624,22.2243935 21.2996624,22.2243935 L14.2377371,22.2243935 C9.57707869,22.2243935 7.01077291,20.1134885 6.28402291,16.8777315 C6.04080777,15.739385 5.95298008,14.9297229 5.95298008,12.1132551 L5.9462241,0.0155528327 L0,0.0155528327 L0,14.7080296 L0,14.7080296 Z" id="Shape"></path>
                <path d="M73.8669472,22.2272851 L57.6400578,22.2272851 C57.6255807,22.1145108 57.6043476,22.004628 57.5889054,21.8928176 L57.5889054,6.10729681 C63.9646165,6.10729681 72.4105518,10.574897 73.8669472,22.2272851 M51.6426813,22.2272851 L35.361744,22.2272851 L35.361744,6.10729681 C41.7403506,6.10729681 50.1862859,10.574897 51.6426813,22.2272851 M80.219495,27.5112947 C80.219495,14.3513927 74.37075,-0.940619639 51.6494373,0.0637470097 L51.6494373,7.85578155 C47.2995538,2.87057588 40.3138745,-0.41819476 29.4116594,0.0637470097 L29.4116594,27.8264846 L57.5908357,27.8322679 C57.5908357,27.8322679 57.6178596,27.8284124 57.6323367,27.8274485 L79.8305438,27.8322679 C79.8305438,27.8322679 79.9936524,27.8322679 80.0920966,27.7522656 C80.2079133,27.6587689 80.219495,27.5112947 80.219495,27.5112947" id="Shape"></path>
            </g>
        </g>
    </g>
</svg>