<?xml version="1.0" encoding="UTF-8" standalone="no"?>
<svg width="40px" height="35px" viewBox="0 0 40 35" version="1.1" xmlns="http://www.w3.org/2000/svg" xmlns:xlink="http://www.w3.org/1999/xlink">
    <!-- Generator: Sketch 39.1 (31720) - http://www.bohemiancoding.com/sketch -->
    <title>alert</title>
    <desc>Created with Sketch.</desc>
    <defs></defs>
    <g id="Estilos" stroke="none" stroke-width="1" fill="none" fill-rule="evenodd">
        <g id="Ãconos" transform="translate(-140.000000, -183.000000)" fill="#000000">
            <path d="M158.557364,196.082184 L161.442636,196.082184 C161.837523,196.082184 162.161792,196.410955 162.161792,196.811326 L162.161792,199.55255 C162.161792,199.855019 162.114232,200.343062 162.056585,200.636765 L161.083779,205.682312 C161.026131,205.976014 160.73501,206.310631 160.436682,206.310631 L159.58926,206.310631 C159.290933,206.310631 158.999812,205.976014 158.940723,205.682312 L157.944857,200.682062 C157.885768,200.38836 157.838208,199.855019 157.838208,199.55255 L157.838208,196.811326 C157.838208,196.410955 158.162477,196.082184 158.557364,196.082184 L158.557364,196.082184 L158.557364,196.082184 Z M162.161792,208.31979 L162.161792,211.607505 C162.161792,211.909975 161.919671,212.155457 161.621344,212.155457 L158.378656,212.155457 C158.080329,212.155457 157.838208,211.909975 157.838208,211.607505 L157.838208,208.31979 C157.838208,208.01732 158.080329,207.771837 158.378656,207.771837 L161.621344,207.771837 C161.919671,207.771837 162.161792,208.01732 162.161792,208.31979 L162.161792,208.31979 L162.161792,208.31979 Z M145.89215,213.616664 L160.000001,189.072775 L174.107851,213.616664 L145.89215,213.616664 L145.89215,213.616664 Z M179.714097,214.718414 L161.874994,184.10175 C161.488754,183.419366 160.773922,183 160.000001,183 C159.226079,183 158.511246,183.419366 158.125006,184.10175 L140.285903,214.718414 C139.902546,215.396414 139.905428,216.230763 140.290227,216.907301 C140.677908,217.58384 141.391299,218.000284 142.162338,218.000284 L177.837662,218.000284 C178.608701,218.000284 179.322092,217.58384 179.709773,216.907301 C180.094572,216.230763 180.097454,215.396414 179.714097,214.718414 L179.714097,214.718414 L179.714097,214.718414 Z" id="alert"></path>
        </g>
    </g>
</svg>