<svg id="Capa_1" data-name="Capa 1" xmlns="http://www.w3.org/2000/svg" viewBox="0 0 40 40"><title>calendar</title><path d="M35.9,4.4h0V6.2a3.93,3.93,0,0,1-3.86,4h0a4,4,0,0,1-3.9-4V4.4H12V6.2a3.93,3.93,0,0,1-3.86,4h0a4,4,0,0,1-3.9-4V4.4H0V40H40V4.4H35.9ZM36.1,36H3.9V14H36.1V36Z" transform="translate(0 0)"/><path d="M8.1,8.1A1.79,1.79,0,0,0,9.9,6.32s0,0,0,0V1.8A1.79,1.79,0,0,0,8.12,0h0A1.71,1.71,0,0,0,6.4,1.72s0,0.05,0,.08V6.3A1.77,1.77,0,0,0,8.1,8.1Z" transform="translate(0 0)"/><path d="M32,8.1a1.79,1.79,0,0,0,1.8-1.78s0,0,0,0V1.8a1.8,1.8,0,1,0-3.6,0V6.3A1.79,1.79,0,0,0,32,8.1h0Z" transform="translate(0 0)"/><rect x="25.9" y="26.6" width="5.7" height="5.8"/><rect x="17.2" y="26.6" width="5.7" height="5.8"/><rect x="8.6" y="26.6" width="5.7" height="5.8"/><rect x="25.9" y="18.1" width="5.7" height="5.8"/><rect x="17.2" y="18.1" width="5.7" height="5.8"/><rect x="8.6" y="18.1" width="5.7" height="5.8"/></svg>