<?xml version="1.0" encoding="UTF-8" standalone="no"?>
<svg width="40px" height="40px" viewBox="0 0 40 40" version="1.1" xmlns="http://www.w3.org/2000/svg" xmlns:xlink="http://www.w3.org/1999/xlink">
    <!-- Generator: Sketch 39.1 (31720) - http://www.bohemiancoding.com/sketch -->
    <title>file</title>
    <desc>Created with Sketch.</desc>
    <defs></defs>
    <g id="Estilos" stroke="none" stroke-width="1" fill="none" fill-rule="evenodd">
        <g id="Ãconos" transform="translate(-100.000000, -220.000000)" fill="#000000">
            <path d="M132.994,228.994 C132.994,228.446 132.548,228 132,228 L108,228 C107.45,228 107.004,228.446 107.004,228.994 L107.004,231.006 C107.004,231.554 107.45,232 108,232 L132,232 C132.548,232 132.994,231.554 132.994,231.006 L132.994,228.994 L132.994,228.994 Z M132.994,236.994 C132.994,236.446 132.548,236 132,236 L108,236 C107.45,236 107.004,236.446 107.004,236.994 L107.004,239.006 C107.004,239.554 107.45,240 108,240 L132,240 C132.548,240 132.994,239.554 132.994,239.006 L132.994,236.994 L132.994,236.994 Z M122.994,244.994 C122.994,244.446 122.548,244 122,244 L108,244 C107.45,244 107.004,244.446 107.004,244.994 L107.004,247.006 C107.004,247.554 107.45,248 108,248 L122,248 C122.548,248 122.994,247.554 122.994,247.006 L122.994,244.994 L122.994,244.994 Z M140,221.126 L140,248 L128.862,248 C128.314,248 128,248.392 128,248.94 L128,260 L100.994,260 C100.446,260 100,259.42 100,258.872 L100,221.126 C100,220.578 100.446,220 100.994,220 L138.794,220 C139.342,220 140,220.578 140,221.126 L140,221.126 L140,221.126 Z M130.85,250 L139.79,250 L130,259.868 L130,250.928 C130,250.38 130.302,250 130.85,250 L130.85,250 L130.85,250 Z" id="file"></path>
        </g>
    </g>
</svg>