<?xml version="1.0" encoding="utf-8"?>
<!-- Generator: Adobe Illustrator 19.2.1, SVG Export Plug-In . SVG Version: 6.00 Build 0)  -->
<svg version="1.1" id="Capa_1" xmlns="http://www.w3.org/2000/svg" xmlns:xlink="http://www.w3.org/1999/xlink" x="0px" y="0px"
	 viewBox="0 0 40 40" style="enable-background:new 0 0 40 40;" xml:space="preserve">
<title>ok-circle</title>
<desc>Created with Sketch.</desc>
<g>
	<polygon points="28.2,9 14.9,22.4 10.6,18.1 5.8,22.8 14.9,31.9 33,13.8 	"/>
	<path d="M20,0C9,0,0,9,0,20c0,11,9,20,20,20s20-9,20-20C40,9,31,0,20,0z M20,38c-9.9,0-18-8.1-18-18c0-9.9,8.1-18,18-18
		c9.9,0,18,8.1,18,18C38,29.9,29.9,38,20,38z"/>
</g>
</svg>
