<?xml version="1.0" encoding="UTF-8" standalone="no"?>
<svg width="30px" height="40px" viewBox="0 0 30 40" version="1.1" xmlns="http://www.w3.org/2000/svg" xmlns:xlink="http://www.w3.org/1999/xlink">
    <!-- Generator: Sketch 39.1 (31720) - http://www.bohemiancoding.com/sketch -->
    <title>poll</title>
    <desc>Created with Sketch.</desc>
    <defs></defs>
    <g id="Estilos" stroke="none" stroke-width="1" fill="none" fill-rule="evenodd">
        <g id="Ãconos" transform="translate(-65.000000, -220.000000)" fill="#000000">
            <path d="M89.7180353,238.514074 C89.7180353,238.108148 89.3839068,237.777778 88.9733629,237.777778 L70.9933412,237.777778 C70.5812986,237.777778 70.2471701,238.108148 70.2471701,238.514074 L70.2471701,240.004444 C70.2471701,240.410371 70.5812986,240.74074 70.9933412,240.74074 L88.9733629,240.74074 C89.3839068,240.74074 89.7180353,240.410371 89.7180353,240.004444 L89.7180353,238.514074 L89.7180353,238.514074 Z M89.7180353,250.365926 C89.7180353,249.96 89.3839068,249.629629 88.9733629,249.629629 L70.9933412,249.629629 C70.5812986,249.629629 70.2471701,249.96 70.2471701,250.365926 L70.2471701,251.856296 C70.2471701,252.262222 70.5812986,252.592593 70.9933412,252.592593 L88.9733629,252.592593 C89.3839068,252.592593 89.7180353,252.262222 89.7180353,251.856296 L89.7180353,250.365926 L89.7180353,250.365926 Z M89.7180353,244.44 C89.7180353,244.034074 89.3839068,243.703704 88.9733629,243.703704 L70.9933412,243.703704 C70.5812986,243.703704 70.2471701,244.034074 70.2471701,244.44 L70.2471701,245.930371 C70.2471701,246.336296 70.5812986,246.666667 70.9933412,246.666667 L88.9733629,246.666667 C89.3839068,246.666667 89.7180353,246.336296 89.7180353,245.930371 L89.7180353,244.44 L89.7180353,244.44 Z M94.9667041,225.185185 L94.9667041,259.25926 C94.9667041,259.666667 94.6295783,260 94.2175357,260 L65.7491674,260 C65.3356271,260 65,259.666667 65,259.25926 L65,225.185185 C65,224.777778 65.3356271,224.444444 65.7491674,224.444444 L69.4950054,224.444444 L69.4950054,228.888889 C69.4950054,229.703704 70.1692561,230.37037 70.9933412,230.37037 L88.9733629,230.37037 C89.7974471,230.37037 90.4716977,229.703704 90.4716977,228.888889 L90.4716977,224.444444 L94.2175357,224.444444 C94.6295783,224.444444 94.9667041,224.777778 94.9667041,225.185185 L94.9667041,225.185185 L94.9667041,225.185185 Z M70.9933412,227.407407 L70.9933412,224.475556 C70.9933412,223.662222 71.6975584,222.962963 72.5231412,222.962963 L75.4883466,222.962963 L75.4883466,221.605926 C75.4883466,220.791111 76.1625973,220 76.9866814,220 L82.9800226,220 C83.8041068,220 84.4783575,220.791111 84.4783575,221.605926 L84.4783575,222.962963 L87.4420643,222.962963 C88.2676471,222.962963 88.9733629,223.662222 88.9733629,224.475556 L88.9733629,227.407407 C88.9733629,228.222222 88.2676471,228.888889 87.4420643,228.888889 L72.5231412,228.888889 C71.6975584,228.888889 70.9933412,228.222222 70.9933412,227.407407 L70.9933412,227.407407 L70.9933412,227.407407 Z" id="poll"></path>
        </g>
    </g>
</svg>